<?xml version="1.0" encoding="utf-8"?>
<!-- Generator: Adobe Illustrator 23.0.2, SVG Export Plug-In . SVG Version: 6.00 Build 0)  -->
<svg version="1.1" id="Layer_1" xmlns="http://www.w3.org/2000/svg" xmlns:xlink="http://www.w3.org/1999/xlink" x="0px" y="0px"
	 viewBox="0 0 120 120" style="enable-background:new 0 0 120 120;" xml:space="preserve">
<style type="text/css">
	.st0{font-family:'ArialMT';}
	.st1{font-size:11px;}
</style>
<g>
	<path d="M68,54c0.55,0,1,0.45,1,1v10c0,0.55-0.45,1-1,1H52c-0.55,0-1-0.45-1-1V55c0-0.55,0.45-1,1-1H68 M68,53H52c-1.1,0-2,0.9-2,2
		v10c0,1.1,0.9,2,2,2h16c1.1,0,2-0.9,2-2V55C70,53.9,69.1,53,68,53L68,53z"/>
</g>
<text transform="matrix(1 0 0 1 53.2812 64.167)" class="st0 st1">Ad</text>
</svg>
