<?xml version="1.0" encoding="utf-8"?>
<!-- Generator: Adobe Illustrator 23.0.4, SVG Export Plug-In . SVG Version: 6.00 Build 0)  -->
<svg version="1.1" id="Layer_1" xmlns="http://www.w3.org/2000/svg" xmlns:xlink="http://www.w3.org/1999/xlink" x="0px" y="0px"
	 viewBox="0 0 120 120" style="enable-background:new 0 0 120 120;" xml:space="preserve">
<style type="text/css">
	.st0{fill:#1877F2;}
	.st1{fill:#FFFFFF;}
</style>
<title>f-ogo_RGB_HEX-58</title>
<path class="st0" d="M70,60c0-5.5-4.5-10-10-10s-10,4.5-10,10c0,5,3.7,9.1,8.4,9.9v-7h-2.5V60h2.5v-2.2c0-2.5,1.5-3.9,3.8-3.9
	c1.1,0,2.2,0.2,2.2,0.2v2.5h-1.3c-1.2,0-1.6,0.8-1.6,1.6V60h2.8l-0.4,2.9h-2.3v7C66.3,69.1,70,65,70,60z"/>
<path class="st1" d="M63.9,62.9l0.4-2.9h-2.8v-1.9c0-0.8,0.4-1.6,1.6-1.6h1.3v-2.5c0,0-1.1-0.2-2.2-0.2c-2.3,0-3.8,1.4-3.8,3.9V60
	h-2.5v2.9h2.5v7c0.5,0.1,1,0.1,1.6,0.1s1.1,0,1.6-0.1v-7H63.9z"/>
</svg>
