<?xml version="1.0" encoding="utf-8"?>
<!-- Generator: Adobe Illustrator 23.0.2, SVG Export Plug-In . SVG Version: 6.00 Build 0)  -->
<svg version="1.1" id="Layer_1" xmlns="http://www.w3.org/2000/svg" xmlns:xlink="http://www.w3.org/1999/xlink" x="0px" y="0px"
	 viewBox="0 0 120 120" style="enable-background:new 0 0 120 120;" xml:space="preserve">
<style type="text/css">
	.st0{fill:#4267B2;}
	.st1{fill:#FFFFFF;}
</style>
<title>f-ogo_RGB_HEX-58</title>
<path class="st0" d="M68.9,50H51.1c-0.6,0-1.1,0.5-1.1,1.1v17.8c0,0.6,0.5,1.1,1.1,1.1c0,0,0,0,0,0h9.6v-7.7h-2.6v-3h2.6V57
	c0-2.6,1.6-4,3.9-4c0.8,0,1.6,0,2.3,0.1v2.7h-1.6c-1.3,0-1.5,0.6-1.5,1.5v1.9h3l-0.4,3h-2.6V70h5.1c0.6,0,1.1-0.5,1.1-1.1l0,0V51.1
	C70,50.5,69.5,50,68.9,50C68.9,50,68.9,50,68.9,50z"/>
<path id="f" class="st1" d="M63.8,70v-7.7h2.6l0.4-3h-3v-1.9c0-0.9,0.2-1.5,1.5-1.5h1.6v-2.7c-0.8-0.1-1.6-0.1-2.3-0.1
	c-2.3,0-3.9,1.4-3.9,4v2.2h-2.6v3h2.6V70H63.8z"/>
</svg>
