<?xml version="1.0" encoding="utf-8"?>
<!-- Generator: Adobe Illustrator 23.0.2, SVG Export Plug-In . SVG Version: 6.00 Build 0)  -->
<svg version="1.1" id="Logo" xmlns="http://www.w3.org/2000/svg" xmlns:xlink="http://www.w3.org/1999/xlink" x="0px" y="0px"
	 viewBox="0 0 120 120" style="enable-background:new 0 0 120 120;" xml:space="preserve">
<path d="M60,50.76c-5.11,0-9.24,4.13-9.24,9.24s4.13,9.24,9.24,9.24s9.24-4.13,9.24-9.24S65.11,50.76,60,50.76z M60,66
	c-3.32,0-6-2.68-6-6c0-3.32,2.68-6,6-6c3.32,0,6,2.68,6,6C66,63.32,63.32,66,60,66z"/>
<circle cx="69.61" cy="50.39" r="2.16"/>
<path d="M77.89,52.57c-0.09-1.91-0.39-3.22-0.84-4.37c-0.46-1.18-1.07-2.18-2.07-3.18s-2-1.62-3.18-2.07
	c-1.15-0.44-2.45-0.74-4.37-0.84C65.51,42.02,64.89,42,60,42s-5.5,0.02-7.43,0.11c-1.91,0.09-3.22,0.39-4.37,0.84
	c-1.18,0.46-2.18,1.07-3.18,2.07c-1,1-1.62,2-2.07,3.18c-0.44,1.15-0.74,2.45-0.84,4.37C42.02,54.49,42,55.11,42,60
	s0.02,5.5,0.11,7.43c0.09,1.91,0.39,3.22,0.84,4.37c0.46,1.18,1.07,2.18,2.07,3.18c1,1,2,1.62,3.18,2.07
	c1.15,0.44,2.45,0.74,4.37,0.84C54.49,77.98,55.11,78,60,78s5.5-0.02,7.43-0.11c1.91-0.09,3.22-0.39,4.37-0.84
	c1.18-0.46,2.18-1.07,3.18-2.07s1.62-2,2.07-3.18c0.44-1.15,0.74-2.45,0.84-4.37C77.98,65.51,78,64.89,78,60S77.98,54.5,77.89,52.57
	z M74.65,67.27c-0.09,1.76-0.38,2.71-0.62,3.34c-0.33,0.84-0.72,1.44-1.34,2.07c-0.63,0.63-1.23,1.02-2.07,1.34
	c-0.63,0.24-1.59,0.54-3.34,0.62c-1.9,0.09-2.46,0.11-7.27,0.11s-5.38-0.02-7.27-0.11c-1.76-0.09-2.71-0.38-3.34-0.62
	c-0.84-0.33-1.44-0.72-2.07-1.34c-0.63-0.63-1.02-1.23-1.34-2.07c-0.24-0.63-0.54-1.59-0.62-3.34c-0.09-1.9-0.11-2.46-0.11-7.27
	s0.02-5.38,0.11-7.27c0.09-1.76,0.38-2.71,0.62-3.34c0.33-0.84,0.72-1.44,1.34-2.07c0.63-0.63,1.23-1.02,2.07-1.34
	c0.63-0.24,1.59-0.54,3.34-0.62c1.9-0.09,2.46-0.11,7.27-0.11s5.38,0.02,7.27,0.11c1.76,0.09,2.71,0.38,3.34,0.62
	c0.84,0.33,1.44,0.72,2.07,1.34c0.63,0.63,1.02,1.23,1.34,2.07c0.24,0.63,0.54,1.59,0.62,3.34c0.09,1.9,0.11,2.46,0.11,7.27
	S74.74,65.38,74.65,67.27z"/>
</svg>
